<svg id="itsmikita" xmlns="http://www.w3.org/2000/svg" viewBox="0 0 1080 381"><rect width="32" height="90"/><polygon points="32 116 0 116 0 381 90 381 90 349 32 349 32 116"/><rect x="524" width="31" height="90"/><polygon points="555 116 524 116 524 381 614 381 614 349 555 349 555 116"/><rect x="814" width="32" height="90"/><polygon points="846 116 814 116 814 381 904 381 904 349 846 349 846 116"/><rect x="116" width="32" height="90"/><polygon points="175 233 148 233 148 175 116 175 116 265 206 265 206 32 233 32 233 206 265 206 265 0 175 0 175 233"/><polygon points="407 349 381 349 381 175 291 175 291 381 323 381 323 206 349 206 349 381 439 381 439 32 465 32 465 381 497 381 497 0 407 0 407 349"/><polygon points="756 58 698 58 698 116 640 116 640 175 614 175 614 0 582 0 582 173.05 582 205.04 582 323 614 323 614 206 640 206 640 265 698 265 698 323 756 323 756 381 788 381 788 291 730 291 730 233 672 233 672 205.04 672 173.05 672 148 730 148 730 90 788 90 788 0 756 0 756 58"/><polygon points="963 291 904 291 904 90 1021 90 1021 58 904 58 904 0 873 0 873 56.72 873 88.71 873 323 931 323 931 381 1021 381 1021 349 963 349 963 291"/><polygon points="148 291 90 291 90 148 148 148 148 116 90 116 90 0 58 0 58 114.88 58 146.88 58 323 116 323 116 381 206 381 206 349 148 349 148 291"/><polygon points="931 0 931 32 1047 32 1047 116 931 116 931 265 1021 265 1021 175 989 175 989 233 963 233 963 148 1047 148 1047 323 1079 323 1079 146.88 1079 114.88 1079 0 931 0"/></svg>